<?xml version="1.0" standalone="no"?>
<!DOCTYPE svg PUBLIC "-//W3C//DTD SVG 20010904//EN"
 "http://www.w3.org/TR/2001/REC-SVG-20010904/DTD/svg10.dtd">
<svg version="1.0" xmlns="http://www.w3.org/2000/svg"
 width="1005.000000pt" height="496.000000pt" viewBox="0 0 1005.000000 496.000000"
 preserveAspectRatio="xMidYMid meet">

<g transform="translate(0.000000,496.000000) scale(0.100000,-0.100000)"
fill="#000000" stroke="none">
<path d="M3431 3584 c-21 -27 -21 -31 -21 -961 l0 -934 25 -24 c23 -24 30 -25
137 -25 63 0 166 -6 230 -14 314 -39 521 -127 704 -298 l66 -62 64 1 64 0 68
64 c209 198 479 292 870 306 140 5 166 8 187 25 l25 19 0 944 0 944 -22 21
c-16 15 -35 20 -72 20 -98 0 -332 -20 -416 -34 -255 -45 -490 -154 -651 -303
l-59 -55 -52 52 c-190 187 -510 306 -888 330 -226 15 -235 14 -259 -16z m439
-171 c243 -35 425 -116 590 -261 33 -30 70 -72 83 -95 l22 -42 3 -757 2 -757
-73 53 c-196 140 -446 220 -776 247 l-141 12 0 814 0 814 93 -6 c50 -4 139
-13 197 -22z m1812 -784 c2 -446 1 -812 -2 -814 -3 -2 -68 -8 -144 -15 -322
-25 -582 -110 -766 -249 l-65 -49 -3 736 c-2 822 -4 796 67 875 46 52 179 151
251 187 166 83 328 119 637 139 l23 1 2 -811z"/>
<path d="M3860 2489 l0 -481 23 6 c12 3 53 6 90 6 l68 0 -1 167 -2 166 109 4
c117 5 159 14 214 49 88 55 132 142 132 259 0 131 -58 229 -168 281 -48 23
-60 24 -257 24 l-208 0 0 -481z m351 321 c19 -5 48 -24 65 -41 27 -28 29 -36
29 -104 0 -68 -2 -76 -29 -104 -37 -38 -80 -51 -173 -51 l-73 0 0 155 0 155
73 0 c39 0 88 -5 108 -10z"/>
<path d="M5029 2775 c-59 -19 -131 -82 -158 -140 -34 -72 -31 -79 49 -99 39
-10 72 -17 73 -15 1 2 10 21 19 41 26 56 56 71 130 66 79 -6 108 -34 108 -107
l0 -49 -122 -22 c-157 -29 -230 -65 -272 -133 -68 -110 -38 -245 67 -298 92
-48 215 -32 296 37 l41 36 0 -43 0 -42 46 7 c26 3 64 6 85 6 l39 0 0 260 c0
281 -7 335 -49 402 -43 67 -114 101 -221 105 -55 2 -101 -2 -131 -12z m221
-470 c0 -71 -19 -108 -73 -140 -61 -35 -128 -35 -156 1 -37 47 -22 116 32 146
17 9 144 41 190 47 4 1 7 -24 7 -54z"/>
<path d="M1435 3098 c-3 -7 -4 -283 -3 -613 l3 -600 130 0 130 0 0 610 0 610
-128 3 c-96 2 -129 -1 -132 -10z"/>
<path d="M2327 2806 c-60 -25 -167 -100 -167 -116 0 -6 -4 -10 -10 -10 -6 0
-10 27 -10 60 l0 60 -120 0 -120 0 2 -457 3 -458 117 -3 116 -3 4 278 c4 301
6 313 63 381 74 88 220 105 289 34 50 -53 56 -97 56 -409 l0 -283 121 0 120 0
-3 358 -3 357 -28 61 c-54 118 -134 166 -282 171 -78 3 -98 0 -148 -21z"/>
<path d="M6317 2820 c-102 -26 -213 -111 -267 -205 -86 -150 -81 -382 11 -527
42 -65 120 -135 187 -166 51 -24 68 -27 172 -27 132 0 170 14 249 89 l43 41
-4 -90 c-5 -105 -30 -164 -87 -202 -109 -73 -313 -51 -423 46 l-36 31 -66 -79
-66 -80 43 -36 c52 -45 143 -90 222 -110 68 -17 207 -20 286 -5 162 31 295
147 345 300 16 49 18 107 22 528 l3 472 -115 0 -116 0 0 -51 0 -51 -42 37
c-75 63 -140 89 -237 92 -47 1 -103 -2 -124 -7z m255 -217 c55 -22 114 -93
128 -154 19 -78 9 -188 -22 -240 -85 -144 -290 -159 -400 -30 -100 117 -65
350 63 417 69 35 153 38 231 7z"/>
<path d="M7423 2816 c-161 -39 -280 -148 -332 -304 -23 -68 -28 -222 -10 -301
64 -280 400 -430 669 -299 67 33 195 148 188 169 -2 6 -45 31 -95 54 l-92 43
-25 -37 c-51 -74 -153 -106 -257 -81 -88 21 -159 111 -159 204 l0 26 330 0
c307 0 330 1 331 18 7 114 -15 236 -56 307 -32 54 -119 136 -173 164 -95 48
-214 62 -319 37z m173 -181 c77 -23 134 -92 134 -163 l0 -27 -210 0 c-238 0
-228 -5 -184 83 27 55 64 87 123 108 48 17 77 17 137 -1z"/>
<path d="M8324 2815 c-75 -16 -113 -35 -166 -83 -55 -49 -78 -102 -78 -180 0
-144 103 -235 321 -283 52 -11 112 -28 135 -38 82 -36 82 -125 0 -162 -82 -37
-193 -15 -279 55 l-53 43 -82 -44 c-45 -25 -82 -51 -82 -58 0 -27 105 -121
170 -153 123 -60 300 -66 423 -13 109 47 179 148 180 261 2 163 -90 235 -376
296 -125 26 -181 81 -142 140 53 81 212 66 303 -29 l34 -35 79 55 c43 30 79
58 79 63 0 19 -95 99 -147 125 -59 29 -167 55 -223 54 -19 0 -63 -7 -96 -14z"/>
</g>
</svg>
